<svg version="1.1" id="Layer_1" xmlns="http://www.w3.org/2000/svg" xmlns:xlink="http://www.w3.org/1999/xlink" x="0px" y="0px"
	 width="100%" viewBox="0 0 512 512" enable-background="new 0 0 512 512" xml:space="preserve">
<path fill="#253238" opacity="1.000000" stroke="none" 
	d="
M289.000000,513.000000 
	C267.979095,513.000000 246.958206,513.000000 225.399872,512.614624 
	C223.853973,511.821747 222.878922,511.217957 221.831436,511.039642 
	C216.615128,510.151794 211.335724,509.589722 206.158478,508.524506 
	C179.648010,503.069916 154.569138,493.794037 130.937775,480.512360 
	C103.108917,464.871521 79.174477,444.515228 58.880642,420.080048 
	C42.064392,399.832184 28.543541,377.402802 18.885914,352.773132 
	C11.903929,334.967163 6.550970,316.746124 3.851654,297.765045 
	C3.425550,294.768768 1.976226,291.918030 0.999999,289.000000 
	C1.000000,267.979095 1.000000,246.958206 1.385718,225.399292 
	C2.496273,221.894669 3.477885,218.964523 3.905285,215.955673 
	C7.290824,192.121765 14.106967,169.214737 24.882847,147.810883 
	C32.459667,132.761215 41.576996,118.394676 50.994740,104.387596 
	C62.826130,86.790695 78.010445,71.988663 94.306320,58.585049 
	C112.022171,44.013466 131.358368,31.862282 152.534332,22.627808 
	C174.880920,12.882852 197.923813,6.012606 222.106293,2.918962 
	C223.135849,2.787252 224.038330,1.662269 225.000000,1.000002 
	C246.020889,1.000000 267.041779,1.000000 288.600647,1.385762 
	C293.434631,2.566041 297.739380,3.316334 302.025299,4.162077 
	C336.056183,10.877416 367.933563,22.873402 397.105621,41.962322 
	C418.975708,56.273136 438.095978,73.621872 454.787659,93.529892 
	C469.748901,111.374008 481.912933,131.085068 491.369202,152.515106 
	C501.154297,174.690262 507.660095,197.672485 511.066315,221.611374 
	C511.236664,222.808395 512.334167,223.873489 513.000000,225.000000 
	C513.000000,246.020889 513.000000,267.041779 512.614746,288.600372 
	C511.836182,289.813721 511.177094,290.456146 511.087860,291.169830 
	C507.003601,323.834442 496.621338,354.365356 480.515289,383.056549 
	C464.971832,410.745544 444.736542,434.548096 420.466187,454.776825 
	C402.589722,469.676422 382.905823,481.923096 361.470642,491.352417 
	C339.302063,501.104431 316.341522,507.717987 292.387909,511.066742 
	C291.191895,511.233917 290.126312,512.334229 289.000000,513.000000 
M250.648804,247.051529 
	C255.475937,249.863312 260.185272,249.694321 264.511566,246.136414 
	C268.286163,243.032227 269.748688,238.927017 268.549469,234.117264 
	C267.287598,229.056305 262.954315,225.479691 257.880432,225.079865 
	C253.126129,224.705231 248.193466,227.607346 246.154129,231.978973 
	C243.774048,237.081070 245.015396,241.806519 250.648804,247.051529 
M212.350327,318.108307 
	C217.791412,313.343201 219.143097,308.199432 216.381332,302.768585 
	C213.956604,298.000488 208.590454,295.405945 203.487671,296.534424 
	C196.458755,298.088928 192.302048,304.991516 194.373383,311.669556 
	C196.624603,318.927643 203.772324,321.759491 212.350327,318.108307 
M207.885269,217.520340 
	C213.316101,216.299774 216.661377,212.949310 217.557449,207.481720 
	C218.320160,202.827988 216.508591,199.007004 212.791794,196.186646 
	C208.743027,193.114395 202.998489,193.157349 198.855225,196.130173 
	C194.687363,199.120590 192.877457,204.535660 194.432724,209.361847 
	C196.148453,214.685989 200.373688,217.460144 207.885269,217.520340 
M301.194000,215.439117 
	C307.169067,218.596344 311.741669,218.408920 315.914764,214.835754 
	C319.698303,211.596146 321.117584,206.360733 319.351074,201.758972 
	C317.510345,196.963730 313.992737,194.271393 308.841400,193.973816 
	C303.661438,193.674561 299.871674,196.052780 297.531860,200.578476 
	C294.994720,205.485886 296.047089,210.005173 301.194000,215.439117 
M216.685516,252.073730 
	C211.476791,243.926941 202.517258,242.636902 196.813599,249.212479 
	C193.082108,253.514389 192.922440,259.844604 196.432373,264.329102 
	C199.847839,268.692902 205.740601,270.141541 210.762009,267.851837 
	C216.303452,265.324982 218.606567,259.724609 216.685516,252.073730 
M300.515411,247.933655 
	C295.762054,253.129105 294.942352,258.206238 298.045471,263.232025 
	C300.839661,267.757416 306.403046,269.921265 311.403168,268.424164 
	C316.147217,267.003723 319.070160,263.790131 319.907623,258.995026 
	C320.749451,254.175095 319.048676,250.076065 315.011780,247.274033 
	C310.417999,244.085434 305.686005,244.355270 300.515411,247.933655 
M296.871338,303.685699 
	C294.845032,311.447388 298.259460,317.683014 305.473755,319.395996 
	C311.812286,320.901001 318.251373,316.728424 319.714783,310.167603 
	C320.915649,304.784058 317.838409,299.056854 312.552216,296.837006 
	C306.608887,294.341187 301.253510,296.455719 296.871338,303.685699 
z"/>
<path fill="#000000" opacity="1.000000" stroke="none" 
	d="
M289.468658,513.000000 
	C290.126312,512.334229 291.191895,511.233917 292.387909,511.066742 
	C316.341522,507.717987 339.302063,501.104431 361.470642,491.352417 
	C382.905823,481.923096 402.589722,469.676422 420.466187,454.776825 
	C444.736542,434.548096 464.971832,410.745544 480.515289,383.056549 
	C496.621338,354.365356 507.003601,323.834442 511.087860,291.169830 
	C511.177094,290.456146 511.836182,289.813721 512.614746,289.069031 
	C513.000000,363.593719 513.000000,438.187408 513.000000,513.000000 
	C438.645905,513.000000 364.291626,513.000000 289.468658,513.000000 
z"/>
<path fill="#000000" opacity="1.000000" stroke="none" 
	d="
M0.999999,289.468658 
	C1.976226,291.918030 3.425550,294.768768 3.851654,297.765045 
	C6.550970,316.746124 11.903929,334.967163 18.885914,352.773132 
	C28.543541,377.402802 42.064392,399.832184 58.880642,420.080048 
	C79.174477,444.515228 103.108917,464.871521 130.937775,480.512360 
	C154.569138,493.794037 179.648010,503.069916 206.158478,508.524506 
	C211.335724,509.589722 216.615128,510.151794 221.831436,511.039642 
	C222.878922,511.217957 223.853973,511.821747 224.931213,512.614624 
	C150.406296,513.000000 75.812599,513.000000 1.000000,513.000000 
	C1.000000,438.645905 1.000000,364.291626 0.999999,289.468658 
z"/>
<path fill="#000000" opacity="1.000000" stroke="none" 
	d="
M513.000000,224.531342 
	C512.334167,223.873489 511.236664,222.808395 511.066315,221.611374 
	C507.660095,197.672485 501.154297,174.690262 491.369202,152.515106 
	C481.912933,131.085068 469.748901,111.374008 454.787659,93.529892 
	C438.095978,73.621872 418.975708,56.273136 397.105621,41.962322 
	C367.933563,22.873402 336.056183,10.877416 302.025299,4.162077 
	C297.739380,3.316334 293.434631,2.566041 289.069305,1.385762 
	C363.593719,1.000000 438.187408,1.000000 513.000000,1.000000 
	C513.000000,75.354088 513.000000,149.708389 513.000000,224.531342 
z"/>
<path fill="#000000" opacity="1.000000" stroke="none" 
	d="
M224.531342,1.000002 
	C224.038330,1.662269 223.135849,2.787252 222.106293,2.918962 
	C197.923813,6.012606 174.880920,12.882852 152.534332,22.627808 
	C131.358368,31.862282 112.022171,44.013466 94.306320,58.585049 
	C78.010445,71.988663 62.826130,86.790695 50.994740,104.387596 
	C41.576996,118.394676 32.459667,132.761215 24.882847,147.810883 
	C14.106967,169.214737 7.290824,192.121765 3.905285,215.955673 
	C3.477885,218.964523 2.496273,221.894669 1.385718,224.930634 
	C1.000000,150.406296 1.000000,75.812576 1.000000,1.000000 
	C75.354088,1.000000 149.708389,1.000000 224.531342,1.000002 
z"/>
<path fill="#FAFBFB" opacity="1.000000" stroke="none" 
	d="
M250.328308,246.850143 
	C245.015396,241.806519 243.774048,237.081070 246.154129,231.978973 
	C248.193466,227.607346 253.126129,224.705231 257.880432,225.079865 
	C262.954315,225.479691 267.287598,229.056305 268.549469,234.117264 
	C269.748688,238.927017 268.286163,243.032227 264.511566,246.136414 
	C260.185272,249.694321 255.475937,249.863312 250.328308,246.850143 
z"/>
<path fill="#FAFAFB" opacity="1.000000" stroke="none" 
	d="
M212.031433,318.323730 
	C203.772324,321.759491 196.624603,318.927643 194.373383,311.669556 
	C192.302048,304.991516 196.458755,298.088928 203.487671,296.534424 
	C208.590454,295.405945 213.956604,298.000488 216.381332,302.768585 
	C219.143097,308.199432 217.791412,313.343201 212.031433,318.323730 
z"/>
<path fill="#FAFBFB" opacity="1.000000" stroke="none" 
	d="
M207.497223,217.602539 
	C200.373688,217.460144 196.148453,214.685989 194.432724,209.361847 
	C192.877457,204.535660 194.687363,199.120590 198.855225,196.130173 
	C202.998489,193.157349 208.743027,193.114395 212.791794,196.186646 
	C216.508591,199.007004 218.320160,202.827988 217.557449,207.481720 
	C216.661377,212.949310 213.316101,216.299774 207.497223,217.602539 
z"/>
<path fill="#FAFBFB" opacity="1.000000" stroke="none" 
	d="
M300.902222,215.204712 
	C296.047089,210.005173 294.994720,205.485886 297.531860,200.578476 
	C299.871674,196.052780 303.661438,193.674561 308.841400,193.973816 
	C313.992737,194.271393 317.510345,196.963730 319.351074,201.758972 
	C321.117584,206.360733 319.698303,211.596146 315.914764,214.835754 
	C311.741669,218.408920 307.169067,218.596344 300.902222,215.204712 
z"/>
<path fill="#FBFBFB" opacity="1.000000" stroke="none" 
	d="
M216.820709,252.432053 
	C218.606567,259.724609 216.303452,265.324982 210.762009,267.851837 
	C205.740601,270.141541 199.847839,268.692902 196.432373,264.329102 
	C192.922440,259.844604 193.082108,253.514389 196.813599,249.212479 
	C202.517258,242.636902 211.476791,243.926941 216.820709,252.432053 
z"/>
<path fill="#FBFBFB" opacity="1.000000" stroke="none" 
	d="
M300.794830,247.684021 
	C305.686005,244.355270 310.417999,244.085434 315.011780,247.274033 
	C319.048676,250.076065 320.749451,254.175095 319.907623,258.995026 
	C319.070160,263.790131 316.147217,267.003723 311.403168,268.424164 
	C306.403046,269.921265 300.839661,267.757416 298.045471,263.232025 
	C294.942352,258.206238 295.762054,253.129105 300.794830,247.684021 
z"/>
<path fill="#FBFBFB" opacity="1.000000" stroke="none" 
	d="
M296.983459,303.312866 
	C301.253510,296.455719 306.608887,294.341187 312.552216,296.837006 
	C317.838409,299.056854 320.915649,304.784058 319.714783,310.167603 
	C318.251373,316.728424 311.812286,320.901001 305.473755,319.395996 
	C298.259460,317.683014 294.845032,311.447388 296.983459,303.312866 
z"/>
</svg>